<svg width="227" height="66" viewBox="0 0 227 66" fill="none" xmlns="http://www.w3.org/2000/svg">
<path d="M225.512 57.9566C225.512 61.4478 222.625 64.2758 219.054 64.2758H7.72582C4.15677 64.2758 1.25977 61.4478 1.25977 57.9566V7.56348C1.25977 4.07393 4.15677 1.23608 7.72582 1.23608H219.052C222.625 1.23608 225.51 4.07393 225.51 7.56348L225.512 57.9566Z" fill="black"/>
<path d="M218.373 1.31231C222.261 1.31231 225.426 4.39752 225.426 8.18901V57.3229C225.426 61.1144 222.261 64.1996 218.373 64.1996H8.39895C4.51024 64.1996 1.34593 61.1144 1.34593 57.3229V8.18901C1.34593 4.39752 4.51024 1.31231 8.39895 1.31231H218.373ZM218.373 3.50445e-05H8.39895C3.78163 3.50445e-05 0 3.68712 0 8.18901V57.3229C0 61.8248 3.78163 65.5118 8.39895 65.5118H218.373C222.99 65.5118 226.772 61.8248 226.772 57.3229V8.18901C226.772 3.68712 222.99 3.50445e-05 218.373 3.50445e-05Z" fill="#A6A6A6"/>
<path d="M50.6083 32.4021C50.5596 27.1235 55.0413 24.5554 55.2462 24.4359C52.708 20.8278 48.774 20.3348 47.3915 20.2955C44.0874 19.9565 40.8823 22.2232 39.1992 22.2232C37.4824 22.2232 34.8905 20.3283 32.097 20.384C28.5023 20.438 25.1393 22.4672 23.2949 25.6183C19.4885 32.0434 22.3274 41.4853 25.9742 46.6788C27.7984 49.2222 29.9301 52.0622 32.7202 51.9623C35.4499 51.8525 36.4695 50.2655 39.7636 50.2655C43.0274 50.2655 43.9849 51.9623 46.8305 51.8984C49.76 51.8525 51.6044 49.3434 53.3648 46.777C55.473 43.8617 56.3196 40.9907 56.3532 40.8433C56.2843 40.8204 50.6637 38.7289 50.6083 32.4021Z" fill="white"/>
<path d="M45.233 16.8791C46.7011 15.089 47.7056 12.6536 47.4268 10.1821C45.3018 10.2738 42.6444 11.6152 41.1141 13.366C39.7602 14.9088 38.5508 17.4376 38.8632 19.8156C41.2502 19.9892 43.701 18.6413 45.233 16.8791Z" fill="white"/>
<path d="M90.1127 51.597H86.2979L84.2082 45.1949H76.9448L74.9542 51.597H71.2402L78.4365 29.8013H82.8812L90.1127 51.597ZM83.5783 42.5089L81.6885 36.8176C81.4886 36.2362 81.114 34.867 80.5614 32.7116H80.4942C80.2741 33.6386 79.9197 35.0078 79.4326 36.8176L77.5764 42.5089H83.5783Z" fill="white"/>
<path d="M108.619 43.5456C108.619 46.2185 107.878 48.3313 106.396 49.8823C105.069 51.2629 103.421 51.9524 101.454 51.9524C99.3311 51.9524 97.8058 51.2089 96.8769 49.7218H96.8097V58.0008H93.2284V41.0545C93.2284 39.3742 93.1831 37.6496 93.0957 35.8808H96.2453L96.4452 38.3718H96.5124C97.7067 36.4949 99.5192 35.5581 101.952 35.5581C103.853 35.5581 105.44 36.2902 106.71 37.756C107.984 39.2235 108.619 41.1528 108.619 43.5456ZM104.97 43.6734C104.97 42.1437 104.617 40.8826 103.909 39.8901C103.134 38.855 102.094 38.3374 100.791 38.3374C99.9072 38.3374 99.1043 38.6257 98.387 39.194C97.6681 39.7672 97.1977 40.5157 96.9777 41.4427C96.8668 41.8751 96.8114 42.2288 96.8114 42.5073V45.1277C96.8114 46.2709 97.1709 47.2356 97.8898 48.0234C98.6088 48.8111 99.5427 49.2042 100.692 49.2042C102.041 49.2042 103.09 48.6965 103.841 47.6843C104.594 46.6705 104.97 45.3341 104.97 43.6734Z" fill="white"/>
<path d="M127.159 43.5456C127.159 46.2185 126.418 48.3313 124.935 49.8823C123.61 51.2629 121.962 51.9524 119.995 51.9524C117.871 51.9524 116.346 51.2089 115.419 49.7218H115.352V58.0008H111.77V41.0545C111.77 39.3742 111.725 37.6496 111.638 35.8808H114.787L114.987 38.3718H115.054C116.247 36.4949 118.06 35.5581 120.494 35.5581C122.393 35.5581 123.981 36.2902 125.254 37.756C126.522 39.2235 127.159 41.1528 127.159 43.5456ZM123.51 43.6734C123.51 42.1437 123.156 40.8826 122.447 39.8901C121.673 38.855 120.636 38.3374 119.331 38.3374C118.446 38.3374 117.645 38.6257 116.926 39.194C116.207 39.7672 115.738 40.5157 115.518 41.4427C115.409 41.8751 115.352 42.2288 115.352 42.5073V45.1277C115.352 46.2709 115.711 47.2356 116.427 48.0234C117.146 48.8095 118.08 49.2042 119.232 49.2042C120.581 49.2042 121.631 48.6965 122.382 47.6843C123.134 46.6705 123.51 45.3341 123.51 43.6734Z" fill="white"/>
<path d="M147.887 45.4848C147.887 47.3388 147.227 48.8472 145.901 50.0117C144.445 51.2843 142.418 51.9197 139.812 51.9197C137.407 51.9197 135.478 51.4677 134.019 50.562L134.848 47.6516C136.421 48.5786 138.146 49.0438 140.025 49.0438C141.374 49.0438 142.424 48.7457 143.178 48.1528C143.929 47.5599 144.304 46.764 144.304 45.7714C144.304 44.887 143.995 44.1418 143.375 43.5375C142.758 42.9331 141.729 42.3714 140.291 41.8522C136.377 40.429 134.422 38.344 134.422 35.6024C134.422 33.8106 135.107 32.3415 136.479 31.1983C137.847 30.0535 139.671 29.4819 141.952 29.4819C143.986 29.4819 145.676 29.8275 147.025 30.517L146.13 33.3635C144.87 32.6953 143.446 32.3612 141.851 32.3612C140.592 32.3612 139.607 32.6642 138.902 33.2669C138.305 33.8057 138.006 34.4625 138.006 35.2404C138.006 36.1019 138.347 36.8143 139.033 37.3745C139.629 37.892 140.713 38.4521 142.285 39.0565C144.208 39.8115 145.621 40.6943 146.53 41.7064C147.435 42.7153 147.887 43.9781 147.887 45.4848Z" fill="white"/>
<path d="M159.728 38.5012H155.78V46.1317C155.78 48.0724 156.476 49.042 157.87 49.042C158.51 49.042 159.041 48.988 159.461 48.8799L159.56 51.5315C158.854 51.7886 157.925 51.918 156.775 51.918C155.36 51.918 154.255 51.4971 153.457 50.6569C152.663 49.8151 152.263 48.4033 152.263 46.4199V38.4979H149.911V35.8774H152.263V32.9998L155.78 31.9647V35.8774H159.728V38.5012Z" fill="white"/>
<path d="M177.539 43.6096C177.539 46.0253 176.83 48.0087 175.416 49.5597C173.933 51.1565 171.964 51.9525 169.51 51.9525C167.145 51.9525 165.262 51.1877 163.857 49.658C162.453 48.1283 161.751 46.1973 161.751 43.87C161.751 41.4346 162.473 39.4398 163.923 37.8888C165.369 36.3361 167.321 35.5598 169.775 35.5598C172.14 35.5598 174.044 36.3247 175.48 37.856C176.854 39.3415 177.539 41.2593 177.539 43.6096ZM173.824 43.7226C173.824 42.2731 173.506 41.0301 172.863 39.9933C172.112 38.7388 171.039 38.1131 169.648 38.1131C168.208 38.1131 167.115 38.7404 166.364 39.9933C165.72 41.0317 165.403 42.2944 165.403 43.7881C165.403 45.2375 165.72 46.4806 166.364 47.5157C167.138 48.7703 168.22 49.3959 169.616 49.3959C170.983 49.3959 172.056 48.7572 172.831 47.483C173.491 46.4266 173.824 45.1704 173.824 43.7226Z" fill="white"/>
<path d="M189.18 38.9516C188.825 38.8877 188.447 38.855 188.051 38.855C186.791 38.855 185.817 39.3185 185.131 40.2471C184.535 41.066 184.236 42.1011 184.236 43.3507V51.597H180.656L180.69 40.8302C180.69 39.0188 180.645 37.3695 180.556 35.8824H183.675L183.806 38.8894H183.905C184.283 37.8559 184.879 37.0239 185.696 36.3999C186.494 35.8382 187.355 35.5581 188.284 35.5581C188.615 35.5581 188.914 35.581 189.18 35.622V38.9516Z" fill="white"/>
<path d="M205.196 42.9954C205.196 43.621 205.154 44.1484 205.065 44.5791H194.321C194.363 46.1318 194.882 47.3192 195.88 48.1381C196.786 48.8702 197.956 49.237 199.394 49.237C200.985 49.237 202.436 48.9897 203.742 48.4935L204.303 50.9174C202.777 51.566 200.977 51.8886 198.899 51.8886C196.399 51.8886 194.437 51.1713 193.009 49.7382C191.585 48.3051 190.871 46.3807 190.871 43.9666C190.871 41.5967 191.535 39.6232 192.863 38.0493C194.254 36.3689 196.134 35.5287 198.499 35.5287C200.822 35.5287 202.581 36.3689 203.775 38.0493C204.721 39.3841 205.196 41.035 205.196 42.9954ZM201.781 42.0897C201.805 41.0546 201.571 40.1604 201.086 39.4053C200.466 38.4341 199.514 37.9493 198.232 37.9493C197.061 37.9493 196.109 38.4227 195.381 39.3726C194.785 40.1276 194.431 41.0333 194.321 42.0881H201.781V42.0897Z" fill="white"/>
<path d="M82.3934 16.3927C82.3934 18.3204 81.8004 19.7715 80.6162 20.746C79.5193 21.6452 77.9604 22.0956 75.9413 22.0956C74.9402 22.0956 74.0835 22.053 73.3662 21.9678V11.4351C74.3019 11.2877 75.3097 11.2124 76.3982 11.2124C78.3216 11.2124 79.7713 11.6202 80.7489 12.4358C81.8441 13.3579 82.3934 14.6763 82.3934 16.3927ZM80.5372 16.4402C80.5372 15.1906 80.1979 14.2325 79.5193 13.5643C78.8407 12.8977 77.8496 12.5636 76.5444 12.5636C75.99 12.5636 75.518 12.5996 75.1266 12.675V20.6821C75.3433 20.7149 75.7398 20.7296 76.3159 20.7296C77.6631 20.7296 78.7029 20.3644 79.4353 19.6339C80.1677 18.9035 80.5372 17.8389 80.5372 16.4402Z" fill="white"/>
<path d="M92.2351 18.0764C92.2351 19.2638 91.8874 20.2367 91.1919 20.9999C90.4629 21.7844 89.497 22.1758 88.2909 22.1758C87.1285 22.1758 86.203 21.8008 85.5126 21.0474C84.8239 20.2957 84.4795 19.3474 84.4795 18.2042C84.4795 17.0086 84.8339 16.0276 85.5462 15.266C86.2584 14.5044 87.2159 14.1228 88.422 14.1228C89.5844 14.1228 90.5183 14.4979 91.2255 15.2496C91.8974 15.9801 92.2351 16.9234 92.2351 18.0764ZM90.4092 18.1321C90.4092 17.4197 90.2513 16.8088 89.9371 16.2994C89.5676 15.6836 89.0418 15.3757 88.3581 15.3757C87.6509 15.3757 87.1134 15.6836 86.7439 16.2994C86.428 16.8088 86.2718 17.4295 86.2718 18.1632C86.2718 18.8757 86.4297 19.4866 86.7439 19.9959C87.1252 20.6117 87.656 20.9197 88.3413 20.9197C89.0132 20.9197 89.5407 20.6068 89.9203 19.9796C90.2462 19.4604 90.4092 18.8446 90.4092 18.1321Z" fill="white"/>
<path d="M105.432 14.28L102.954 22.0006H101.342L100.315 18.648C100.055 17.8111 99.8433 16.9791 99.6787 16.1537H99.6467C99.4939 17.002 99.2822 17.8324 99.0101 18.648L97.9199 22.0006H96.2888L93.959 14.28H95.7681L96.6634 17.9503C96.8801 18.8184 97.0582 19.6454 97.201 20.4283H97.2329C97.3639 19.783 97.5806 18.9608 97.8863 17.9667L99.0101 14.2817H100.445L101.521 17.8881C101.782 18.7676 101.993 19.6143 102.156 20.43H102.205C102.324 19.6356 102.504 18.7889 102.743 17.8881L103.703 14.2817H105.432V14.28Z" fill="white"/>
<path d="M114.558 22.0006H112.798V17.5786C112.798 16.2159 112.267 15.5346 111.202 15.5346C110.679 15.5346 110.258 15.7213 109.93 16.0964C109.606 16.4714 109.441 16.9136 109.441 17.4197V21.999H107.681V16.4862C107.681 15.8081 107.659 15.0728 107.617 14.2768H109.164L109.247 15.4838H109.295C109.5 15.1088 109.806 14.7992 110.207 14.5519C110.684 14.2637 111.219 14.1179 111.803 14.1179C112.542 14.1179 113.157 14.3505 113.646 14.8173C114.254 15.3888 114.558 16.2421 114.558 17.3755V22.0006Z" fill="white"/>
<path d="M119.413 22.0005H117.654V10.7374H119.413V22.0005Z" fill="white"/>
<path d="M129.777 18.0764C129.777 19.2638 129.429 20.2367 128.734 20.9999C128.005 21.7844 127.037 22.1758 125.833 22.1758C124.669 22.1758 123.743 21.8008 123.055 21.0474C122.366 20.2957 122.021 19.3474 122.021 18.2042C122.021 17.0086 122.376 16.0276 123.088 15.266C123.8 14.5044 124.758 14.1228 125.962 14.1228C127.126 14.1228 128.059 14.4979 128.768 15.2496C129.439 15.9801 129.777 16.9234 129.777 18.0764ZM127.949 18.1321C127.949 17.4197 127.792 16.8088 127.477 16.2994C127.11 15.6836 126.582 15.3757 125.9 15.3757C125.191 15.3757 124.654 15.6836 124.286 16.2994C123.97 16.8088 123.814 17.4295 123.814 18.1632C123.814 18.8757 123.972 19.4866 124.286 19.9959C124.667 20.6117 125.198 20.9197 125.883 20.9197C126.555 20.9197 127.081 20.6068 127.461 19.9796C127.788 19.4604 127.949 18.8446 127.949 18.1321Z" fill="white"/>
<path d="M138.298 22.0006H136.717L136.586 21.1113H136.537C135.996 21.8204 135.225 22.1758 134.224 22.1758C133.477 22.1758 132.872 21.9416 132.417 21.4765C132.003 21.054 131.797 20.5282 131.797 19.9042C131.797 18.9608 132.2 18.2419 133.011 17.744C133.821 17.2461 134.96 17.002 136.426 17.0135V16.8694C136.426 15.8523 135.879 15.3446 134.782 15.3446C134.001 15.3446 133.312 15.5362 132.717 15.9162L132.36 14.7894C133.095 14.3455 134.004 14.1228 135.076 14.1228C137.145 14.1228 138.183 15.1874 138.183 17.3165V20.1597C138.183 20.9311 138.222 21.5453 138.298 22.0006ZM136.47 19.3474V18.1567C134.528 18.1239 133.557 18.6431 133.557 19.7126C133.557 20.1155 133.668 20.4168 133.895 20.6183C134.122 20.8197 134.411 20.9197 134.755 20.9197C135.141 20.9197 135.502 20.8001 135.832 20.5626C136.163 20.3235 136.366 20.0205 136.441 19.6487C136.46 19.5652 136.47 19.4637 136.47 19.3474Z" fill="white"/>
<path d="M148.3 22.0005H146.738L146.656 20.7607H146.607C146.108 21.7041 145.258 22.1758 144.064 22.1758C143.11 22.1758 142.315 21.8106 141.685 21.0801C141.055 20.3496 140.741 19.4014 140.741 18.2369C140.741 16.9873 141.082 15.9751 141.768 15.2021C142.431 14.4814 143.244 14.1211 144.212 14.1211C145.275 14.1211 146.019 14.47 146.442 15.1693H146.476V10.7374H148.238V19.9205C148.238 20.6723 148.258 21.3651 148.3 22.0005ZM146.476 18.7446V17.4573C146.476 17.2346 146.459 17.0544 146.427 16.9168C146.328 16.5041 146.115 16.1569 145.791 15.8768C145.463 15.5968 145.068 15.4559 144.613 15.4559C143.956 15.4559 143.442 15.7098 143.064 16.2191C142.69 16.7285 142.5 17.3787 142.5 18.173C142.5 18.9362 142.68 19.5553 143.041 20.0319C143.422 20.5396 143.936 20.7935 144.58 20.7935C145.157 20.7935 145.619 20.5822 145.97 20.158C146.31 19.7666 146.476 19.2949 146.476 18.7446Z" fill="white"/>
<path d="M163.356 18.0764C163.356 19.2638 163.008 20.2367 162.313 20.9999C161.584 21.7844 160.62 22.1758 159.412 22.1758C158.251 22.1758 157.326 21.8008 156.634 21.0474C155.945 20.2957 155.601 19.3474 155.601 18.2042C155.601 17.0086 155.955 16.0276 156.667 15.266C157.379 14.5044 158.337 14.1228 159.545 14.1228C160.705 14.1228 161.641 14.4979 162.347 15.2496C163.019 15.9801 163.356 16.9234 163.356 18.0764ZM161.532 18.1321C161.532 17.4197 161.374 16.8088 161.06 16.2994C160.689 15.6836 160.165 15.3757 159.479 15.3757C158.774 15.3757 158.236 15.6836 157.865 16.2994C157.549 16.8088 157.393 17.4295 157.393 18.1632C157.393 18.8757 157.551 19.4866 157.865 19.9959C158.246 20.6117 158.777 20.9197 159.462 20.9197C160.134 20.9197 160.663 20.6068 161.043 19.9796C161.367 19.4604 161.532 18.8446 161.532 18.1321Z" fill="white"/>
<path d="M172.821 22.0006H171.062V17.5786C171.062 16.2159 170.531 15.5346 169.465 15.5346C168.942 15.5346 168.521 15.7213 168.195 16.0964C167.869 16.4714 167.706 16.9136 167.706 17.4197V21.999H165.944V16.4862C165.944 15.8081 165.924 15.0728 165.882 14.2768H167.427L167.51 15.4838H167.558C167.765 15.1088 168.071 14.7992 168.47 14.5519C168.949 14.2637 169.482 14.1179 170.068 14.1179C170.805 14.1179 171.42 14.3505 171.909 14.8173C172.519 15.3888 172.821 16.2421 172.821 17.3755V22.0006Z" fill="white"/>
<path d="M184.668 15.5656H182.73V19.3162C182.73 20.2694 183.074 20.746 183.756 20.746C184.072 20.746 184.334 20.7198 184.541 20.6657L184.586 21.9678C184.238 22.0955 183.781 22.1594 183.219 22.1594C182.523 22.1594 181.982 21.953 181.591 21.5403C181.198 21.1276 181.003 20.4331 181.003 19.4587V15.5656H179.846V14.2799H181.003V12.8649L182.728 12.3572V14.2783H184.667V15.5656H184.668Z" fill="white"/>
<path d="M193.988 22.0005H192.226V17.6113C192.226 16.2273 191.695 15.5345 190.632 15.5345C189.816 15.5345 189.258 15.9358 188.952 16.7383C188.9 16.907 188.87 17.1134 188.87 17.3558V21.9989H187.111V10.7374H188.87V15.3904H188.904C189.458 14.5437 190.253 14.1211 191.282 14.1211C192.011 14.1211 192.614 14.3537 193.093 14.8204C193.689 15.4019 193.988 16.2666 193.988 17.4098V22.0005Z" fill="white"/>
<path d="M203.602 17.7751C203.602 18.083 203.579 18.3417 203.537 18.553H198.257C198.281 19.3162 198.533 19.8976 199.022 20.3005C199.469 20.6609 200.045 20.841 200.75 20.841C201.531 20.841 202.244 20.7198 202.885 20.4758L203.161 21.6681C202.41 21.9858 201.526 22.1447 200.503 22.1447C199.277 22.1447 198.311 21.7926 197.612 21.0883C196.91 20.3841 196.562 19.4391 196.562 18.2533C196.562 17.0888 196.887 16.1192 197.54 15.3462C198.222 14.5208 199.144 14.108 200.308 14.108C201.447 14.108 202.312 14.5208 202.897 15.3462C203.369 16.0013 203.602 16.812 203.602 17.7751ZM201.923 17.3312C201.936 16.8219 201.82 16.3829 201.582 16.0128C201.276 15.5362 200.811 15.2971 200.181 15.2971C199.606 15.2971 199.138 15.5296 198.78 15.9964C198.488 16.3682 198.315 16.812 198.257 17.3312H201.923Z" fill="white"/>
</svg>
