<svg width="37" height="37" viewBox="0 0 37 37" fill="none" xmlns="http://www.w3.org/2000/svg">
<path d="M4.72383 11.5779C6.00651 9.02373 7.97424 6.8766 10.4071 5.37649C12.8399 3.87639 15.642 3.08241 18.5002 3.08331C22.655 3.08331 26.1453 4.61111 28.8139 7.09936L24.394 11.5209C22.7952 9.99306 20.7633 9.21452 18.5002 9.21452C14.4841 9.21452 11.0847 11.9279 9.87454 15.5708C9.56621 16.4958 9.39046 17.4825 9.39046 18.5C9.39046 19.5175 9.56621 20.5041 9.87454 21.4291C11.0863 25.0736 14.4841 27.7854 18.5002 27.7854C20.5737 27.7854 22.3389 27.2381 23.7202 26.3132C24.521 25.7859 25.2066 25.1017 25.7355 24.302C26.2644 23.5023 26.6257 22.6037 26.7974 21.6604H18.5002V15.6972H33.0196C33.2015 16.7055 33.3002 17.7569 33.3002 18.8499C33.3002 23.5459 31.6197 27.4987 28.7029 30.1812C26.153 32.5369 22.6627 33.9166 18.5002 33.9166C16.4754 33.9175 14.4703 33.5192 12.5995 32.7448C10.7287 31.9703 9.02886 30.8348 7.59713 29.403C6.1654 27.9713 5.02984 26.2714 4.25537 24.4006C3.4809 22.5298 3.08269 20.5248 3.0835 18.5C3.0835 16.0117 3.67858 13.6591 4.72383 11.5779Z" fill="#030712"/>
</svg>
