<svg width="227" height="66" viewBox="0 0 227 66" fill="none" xmlns="http://www.w3.org/2000/svg">
<path d="M218.073 65.5117H8.3874C3.77643 65.5117 0 61.8246 0 57.3227V8.18889C0 3.687 3.77643 -8.23017e-05 8.3874 -8.23017e-05H218.073C222.683 -8.23017e-05 226.46 3.687 226.46 8.18889V57.3227C226.46 61.8246 222.683 65.5117 218.073 65.5117Z" fill="black"/>
<path d="M218.073 1.3122C221.956 1.3122 225.116 4.3974 225.116 8.18889V57.3227C225.116 61.1142 221.956 64.1994 218.073 64.1994H8.3874C4.50404 64.1994 1.34408 61.1142 1.34408 57.3227V8.18889C1.34408 4.3974 4.50404 1.3122 8.3874 1.3122H218.073ZM218.073 -8.23017e-05H8.3874C3.77643 -8.23017e-05 0 3.687 0 8.18889V57.3227C0 61.8246 3.77643 65.5117 8.3874 65.5117H218.073C222.683 65.5117 226.46 61.8246 226.46 57.3227V8.18889C226.46 3.687 222.683 -8.23017e-05 218.073 -8.23017e-05Z" fill="#A6A6A6"/>
<path d="M79.5411 16.7771C79.5411 18.1447 79.1217 19.2399 78.2956 20.0568C77.3457 21.0251 76.1086 21.5124 74.5925 21.5124C73.1436 21.5124 71.9065 21.0169 70.8916 20.0404C69.8746 19.0495 69.3672 17.8335 69.3672 16.3779C69.3672 14.9223 69.8746 13.7062 70.8916 12.7236C71.9065 11.7388 73.1436 11.2434 74.5925 11.2434C75.3139 11.2434 76.0016 11.3888 76.6579 11.659C77.3122 11.9313 77.8448 12.2998 78.2306 12.7543L77.3541 13.6182C76.681 12.8423 75.7647 12.4595 74.5925 12.4595C73.5357 12.4595 72.6194 12.8198 71.8415 13.5466C71.0719 14.2754 70.6861 15.2192 70.6861 16.3779C70.6861 17.5366 71.0719 18.4886 71.8415 19.2174C72.6194 19.936 73.5357 20.3045 74.5925 20.3045C75.7144 20.3045 76.6579 19.936 77.4023 19.2092C77.893 18.7281 78.1719 18.0648 78.2453 17.2173H74.5925V16.034H79.4656C79.5243 16.2899 79.5411 16.5376 79.5411 16.7771Z" fill="white" stroke="white" stroke-width="0.16" stroke-miterlimit="10"/>
<path d="M87.2727 12.6743H82.6953V15.7861H86.8219V16.9694H82.6953V20.0813H87.2727V21.2871H81.3994V11.4685H87.2727V12.6743Z" fill="white" stroke="white" stroke-width="0.16" stroke-miterlimit="10"/>
<path d="M92.7295 21.2871H91.4337V12.6743H88.626V11.4685H95.5393V12.6743H92.7295V21.2871Z" fill="white" stroke="white" stroke-width="0.16" stroke-miterlimit="10"/>
<path d="M100.541 21.2871V11.4685H101.835V21.2871H100.541Z" fill="white" stroke="white" stroke-width="0.16" stroke-miterlimit="10"/>
<path d="M107.57 21.2871H106.285V12.6743H103.467V11.4685H110.388V12.6743H107.57V21.2871Z" fill="white" stroke="white" stroke-width="0.16" stroke-miterlimit="10"/>
<path d="M123.477 20.024C122.485 21.017 121.256 21.5124 119.79 21.5124C118.316 21.5124 117.088 21.017 116.096 20.024C115.106 19.0332 114.613 17.8171 114.613 16.3779C114.613 14.9387 115.106 13.7226 116.096 12.7318C117.088 11.7388 118.316 11.2434 119.79 11.2434C121.248 11.2434 122.476 11.7388 123.468 12.7399C124.466 13.739 124.959 14.9469 124.959 16.3779C124.959 17.8171 124.466 19.0332 123.477 20.024ZM117.054 19.201C117.8 19.936 118.708 20.3045 119.79 20.3045C120.864 20.3045 121.78 19.936 122.518 19.201C123.263 18.4661 123.64 17.5223 123.64 16.3779C123.64 15.2335 123.263 14.2897 122.518 13.5547C121.78 12.8198 120.864 12.4513 119.79 12.4513C118.708 12.4513 117.8 12.8198 117.054 13.5547C116.31 14.2897 115.932 15.2335 115.932 16.3779C115.932 17.5223 116.31 18.4661 117.054 19.201Z" fill="white" stroke="white" stroke-width="0.16" stroke-miterlimit="10"/>
<path d="M126.777 21.2871V11.4685H128.35L133.24 19.1047H133.296L133.24 17.2172V11.4685H134.534V21.2871H133.183L128.063 13.2742H128.006L128.063 15.1699V21.2871H126.777Z" fill="white" stroke="white" stroke-width="0.16" stroke-miterlimit="10"/>
<path d="M114.294 35.6261C110.354 35.6261 107.135 38.5536 107.135 42.5928C107.135 46.5993 110.354 49.5576 114.294 49.5576C118.242 49.5576 121.461 46.5993 121.461 42.5928C121.461 38.5536 118.242 35.6261 114.294 35.6261ZM114.294 46.8143C112.132 46.8143 110.272 45.0721 110.272 42.5928C110.272 40.0809 112.132 38.3694 114.294 38.3694C116.456 38.3694 118.324 40.0809 118.324 42.5928C118.324 45.0721 116.456 46.8143 114.294 46.8143ZM98.6747 35.6261C94.7263 35.6261 91.516 38.5536 91.516 42.5928C91.516 46.5993 94.7263 49.5576 98.6747 49.5576C102.621 49.5576 105.833 46.5993 105.833 42.5928C105.833 38.5536 102.621 35.6261 98.6747 35.6261ZM98.6747 46.8143C96.5107 46.8143 94.6445 45.0721 94.6445 42.5928C94.6445 40.0809 96.5107 38.3694 98.6747 38.3694C100.837 38.3694 102.696 40.0809 102.696 42.5928C102.696 45.0721 100.837 46.8143 98.6747 46.8143ZM80.0882 37.7613V40.7217H87.3286C87.1168 42.3758 86.5507 43.5919 85.6826 44.4395C84.6258 45.4631 82.9797 46.5993 80.0882 46.5993C75.6324 46.5993 72.1432 43.0883 72.1432 38.7379C72.1432 34.3875 75.6324 30.8765 80.0882 30.8765C82.4975 30.8765 84.2504 31.7957 85.5442 32.9872L87.6809 30.901C85.8713 29.2141 83.4641 27.9182 80.0882 27.9182C73.978 27.9182 68.8428 32.7722 68.8428 38.7379C68.8428 44.7035 73.978 49.5576 80.0882 49.5576C83.3907 49.5576 85.8713 48.5012 87.8214 46.5195C89.8197 44.5684 90.4424 41.8251 90.4424 39.61C90.4424 38.9221 90.3837 38.2895 90.2789 37.7613H80.0882ZM156.091 40.0563C155.501 38.4984 153.683 35.6261 149.98 35.6261C146.311 35.6261 143.256 38.4492 143.256 42.5928C143.256 46.4949 146.279 49.5576 150.333 49.5576C153.61 49.5576 155.501 47.6065 156.279 46.4703L153.847 44.8878C153.036 46.0465 151.93 46.8143 150.333 46.8143C148.745 46.8143 147.607 46.1039 146.877 44.7035L156.42 40.8486L156.091 40.0563ZM146.361 42.3758C146.279 39.6898 148.498 38.3141 150.087 38.3141C151.333 38.3141 152.39 38.9221 152.742 39.7922L146.361 42.3758ZM138.605 49.1338H141.742V28.6613H138.605V49.1338ZM133.468 37.1779H133.363C132.658 36.3631 131.314 35.6261 129.612 35.6261C126.039 35.6261 122.772 38.6887 122.772 42.6154C122.772 46.5195 126.039 49.5576 129.612 49.5576C131.314 49.5576 132.658 48.8144 133.363 47.975H133.468V48.9741C133.468 51.6376 132.01 53.0686 129.66 53.0686C127.743 53.0686 126.554 51.7174 126.064 50.5812L123.336 51.6928C124.122 53.5394 126.204 55.8119 129.66 55.8119C133.338 55.8119 136.441 53.6991 136.441 48.5585V36.0498H133.468V37.1779ZM129.88 46.8143C127.718 46.8143 125.909 45.0475 125.909 42.6154C125.909 40.1607 127.718 38.3694 129.88 38.3694C132.01 38.3694 133.69 40.1607 133.69 42.6154C133.69 45.0475 132.01 46.8143 129.88 46.8143ZM170.777 28.6613H163.274V49.1338H166.403V41.3768H170.777C174.251 41.3768 177.659 38.9221 177.659 35.018C177.659 31.116 174.243 28.6613 170.777 28.6613ZM170.859 38.5291H166.403V31.5091H170.859C173.195 31.5091 174.528 33.4028 174.528 35.018C174.528 36.6026 173.195 38.5291 170.859 38.5291ZM190.198 35.5872C187.938 35.5872 185.587 36.5617 184.62 38.7215L187.397 39.8577C187.994 38.7215 189.093 38.353 190.255 38.353C191.878 38.353 193.524 39.305 193.549 40.9858V41.2007C192.983 40.8813 191.771 40.4084 190.28 40.4084C187.29 40.4084 184.243 42.0155 184.243 45.0147C184.243 47.758 186.692 49.5248 189.445 49.5248C191.55 49.5248 192.712 48.5974 193.442 47.5185H193.549V49.101H196.57V41.2478C196.57 37.618 193.794 35.5872 190.198 35.5872ZM189.821 46.8061C188.797 46.8061 187.371 46.3106 187.371 45.0721C187.371 43.4875 189.15 42.8795 190.689 42.8795C192.066 42.8795 192.712 43.1763 193.549 43.5673C193.303 45.4631 191.632 46.8061 189.821 46.8061ZM207.579 36.0355L203.983 44.9103H203.876L200.158 36.0355H196.784L202.37 48.4377L199.183 55.339H202.452L211.06 36.0355H207.579ZM179.378 49.1338H182.515V28.6613H179.378V49.1338Z" fill="white"/>
<path d="M17.5045 12.3469C17.0117 12.8505 16.7266 13.6346 16.7266 14.65V50.8699C16.7266 51.8853 17.0117 52.6694 17.5045 53.173L17.6261 53.2836L38.4143 32.9954V32.5163L17.6261 12.2281L17.5045 12.3469Z" fill="url(#paint0_linear_731_620)"/>
<path d="M45.3358 39.7615L38.4141 32.9953V32.5163L45.3442 25.7501L45.4993 25.8382L53.7064 30.3974C56.0486 31.6912 56.0486 33.8204 53.7064 35.1224L45.4993 39.6734L45.3358 39.7615Z" fill="url(#paint1_linear_731_620)"/>
<path d="M45.499 39.6735L38.4137 32.7559L17.5039 53.173C18.2818 53.9715 19.5504 54.0677 20.9931 53.2693L45.499 39.6735Z" fill="url(#paint2_linear_731_620)"/>
<path d="M45.499 25.8382L20.9931 12.2425C19.5504 11.4522 18.2818 11.5485 17.5039 12.3469L38.4137 32.7559L45.499 25.8382Z" fill="url(#paint3_linear_731_620)"/>
<defs>
<linearGradient id="paint0_linear_731_620" x1="36.5686" y1="51.2471" x2="9.09029" y2="23.103" gradientUnits="userSpaceOnUse">
<stop stop-color="#00A0FF"/>
<stop offset="0.0066" stop-color="#00A1FF"/>
<stop offset="0.2601" stop-color="#00BEFF"/>
<stop offset="0.5122" stop-color="#00D2FF"/>
<stop offset="0.7604" stop-color="#00DFFF"/>
<stop offset="1" stop-color="#00E3FF"/>
</linearGradient>
<linearGradient id="paint1_linear_731_620" x1="56.7563" y1="32.7535" x2="16.1665" y2="32.7535" gradientUnits="userSpaceOnUse">
<stop stop-color="#FFE000"/>
<stop offset="0.4087" stop-color="#FFBD00"/>
<stop offset="0.7754" stop-color="#FFA500"/>
<stop offset="1" stop-color="#FF9C00"/>
</linearGradient>
<linearGradient id="paint2_linear_731_620" x1="41.6462" y1="28.9953" x2="4.38346" y2="-9.17033" gradientUnits="userSpaceOnUse">
<stop stop-color="#FF3A44"/>
<stop offset="1" stop-color="#C31162"/>
</linearGradient>
<linearGradient id="paint3_linear_731_620" x1="12.2405" y1="65.2232" x2="28.88" y2="48.1807" gradientUnits="userSpaceOnUse">
<stop stop-color="#32A071"/>
<stop offset="0.0685" stop-color="#2DA771"/>
<stop offset="0.4762" stop-color="#15CF74"/>
<stop offset="0.8009" stop-color="#06E775"/>
<stop offset="1" stop-color="#00F076"/>
</linearGradient>
</defs>
</svg>
